<svg xmlns="http://www.w3.org/2000/svg" viewBox="0 0 2272.83 2604.4"><g id="Layer_2" data-name="Layer 2"><g id="Layer_1-2" data-name="Layer 1"><path d="M694.86,1560.22V1394.34c0-11.95,9.29-16.37,20.75-9.87l112.75,64c11.46,6.5,20.74,21.49,20.74,33.47v531c0,12-9.28,16.34-20.74,9.72l-112.75-65.14c-11.46-6.62-20.75-21.67-20.75-33.62V1746.71c0-12-9.29-27-20.75-33.54l-147.46-84.61c-11.46-6.57-20.75-2.24-20.75,9.67v176.55c0,11.91-9.29,16.2-20.75,9.58L372.4,1759.22c-11.45-6.61-20.74-21.61-20.74-33.49V1199.47c0-11.88,9.29-16.24,20.74-9.74l112.75,64c11.46,6.5,20.75,21.43,20.75,33.34v165.32c0,11.91,9.29,26.87,20.75,33.42L674.11,1570C685.57,1576.56,694.86,1572.18,694.86,1560.22Z"/><path d="M1766.89,1457.93l0-166.36c0-12,9.29-27.06,20.75-33.68l112.75-65.1c11.46-6.61,20.74-2.26,20.74,9.73q-.06,265.53-.13,531.07c0,12-9.29,27.07-20.75,33.68l-112.72,65.08c-11.45,6.61-20.73,2.25-20.73-9.73l0-177.66c0-12-9.28-16.34-20.74-9.73l-147.44,85.13c-11.46,6.61-20.74,21.69-20.75,33.68q0,88.82,0,177.64c0,12-9.29,27.06-20.74,33.68l-112.72,65.07c-11.45,6.62-20.74,2.26-20.74-9.72v-531c0-12,9.29-27.06,20.75-33.67l112.75-65.1c11.46-6.62,20.74-2.27,20.74,9.72q0,83.17,0,166.35c0,12,9.29,16.34,20.74,9.73l147.45-85.13C1757.6,1485,1766.89,1469.92,1766.89,1457.93Z"/><path d="M2272.8,682.52c0-.82,0-1.63-.08-2.44s-.1-1.45-.16-2.17a63.78,63.78,0,0,0-27.33-47.46c-.68-.48-1.36-1-2.05-1.4s-1.19-.76-1.8-1.12c-.35-.21-.68-.44-1-.65L1169,8.73a65.1,65.1,0,0,0-65,0L32.41,627.33c-.35.2-.68.43-1,.64-.55.33-1.09.67-1.63,1-.82.53-1.62,1.08-2.41,1.65a63.77,63.77,0,0,0-27,47.13c-.07.8-.13,1.59-.18,2.39S0,681.69,0,682.46c0,.36,0,.73,0,1.1V1920.75A65.2,65.2,0,0,0,32.49,1977l1071.36,618.55c.39.23.79.42,1.18.63.55.31,1.12.61,1.69.9.88.46,1.78.89,2.68,1.3a63.76,63.76,0,0,0,47.78,2.52l.25-.1a61.2,61.2,0,0,0,5.81-2.33c1-.44,2-.9,2.91-1.4.55-.29,1.1-.57,1.64-.88.37-.2.75-.38,1.12-.59L2240.42,1977a65.18,65.18,0,0,0,32.41-56.23V683.56C2272.83,683.21,2272.81,682.86,2272.8,682.52Zm-1125-537.4,897.84,518.36a22.77,22.77,0,0,1,0,39.44L1147.8,1221.3a22.81,22.81,0,0,1-22.77,0L227.2,702.92a22.77,22.77,0,0,1,0-39.44L1125,145.12A22.76,22.76,0,0,1,1147.8,145.12ZM162.86,814.39l897.82,518.37a22.75,22.75,0,0,1,11.39,19.72V2389.17a22.77,22.77,0,0,1-34.16,19.72L140.09,1890.53a22.76,22.76,0,0,1-11.39-19.72V834.11A22.77,22.77,0,0,1,162.86,814.39ZM1200.77,2389.17V1352.48a22.76,22.76,0,0,1,11.38-19.72L2110,814.39a22.76,22.76,0,0,1,34.15,19.72v1036.7a22.77,22.77,0,0,1-11.38,19.72l-897.82,518.36A22.78,22.78,0,0,1,1200.77,2389.17Z"/><path d="M432.56,724.7c-16.12-9.33-17.31-21.2-2.2-29.93s35.64-8,51.76,1.31L651,793.78,733.76,746c14.2-8.2,33.58-10.26,48.39-1.69s11.23,19.77-3,28L675.81,831.92c-17.53,10.13-36.58,12.38-60.6-1.53Z"/><path d="M670.83,575c-8-9.49-4.37-16.5,7.72-23.48l11.79-6.81c11.18-6.46,24.11-10.5,46.34-3.93l241.16,70.39c7.08,2,19.65,5.77,25.57,9.2,13.17,7.62,13.12,19.82.43,27.15-10.88,6.28-23,8.34-37.18,4.34L914.48,636.3l-79.79,46.06,26.5,30.36c7.2,8,4.53,14.5-7.26,21.31-13.6,7.85-32.18,7.93-46.66-.45-5.92-3.43-12.44-10.7-15.9-14.79Zm72,7.1-.61.35,65.8,72,58-33.5Z"/><path d="M843.32,497.81c-24-13.9-20.11-24.91-2.58-35l65.88-38C942.89,403.8,995,384,1047.32,414.27c20.07,11.62,29.19,28.42,17.52,45.43l.66.38c29.55-9.45,62.43-7.89,95,11,49.7,28.76,32.92,62-10,86.81l-72.84,42c-17.53,10.12-36.58,12.37-60.6-1.53Zm115.38,9.48,40.8-23.56c23.27-13.44,24.25-25.8,5.49-36.65-22.7-13.14-46.49-6.64-64.92,4l-39.29,22.69ZM1056.77,564l41.7-24.08c19.35-11.17,36.83-26.21,9.51-42-28.63-16.57-55.21-5.41-79.39,8.55l-35.67,20.59Z"/><path d="M1240.08,347.49c56.52-19.7,97.3-9.38,124.94,6.61,42.78,24.76,45.09,60.34-14.75,94.89-62.87,36.29-125.2,32.71-150.87,17.86-13.16-7.62-13.61-18-1.52-25,26.9-15.53,62.73,13.24,112.9-15.73,25.68-14.83,24.42-32,8.63-41.12-9.55-5.53-24.31-9.18-45.84-2.07l-71.38,23.33c-57.54,18.76-92.68,7.86-118-6.81-52.66-30.47-27.67-67.72,14.34-92,38.68-22.34,108-35,139.6-16.69,13.5,7.8,10.82,18.48-1.27,25.46-23,13.26-53.95-9.56-100.19,17.14-23,13.26-24.15,27.26-7.69,36.78s39.85,2.1,59.52-4.69Z"/></g></g></svg>